<?xml version="1.0" encoding="UTF-8"?>
<svg id="Layer_1" xmlns="http://www.w3.org/2000/svg" version="1.1" viewBox="0 0 160.88 51.53">
  <!-- Generator: Adobe Illustrator 30.2.1, SVG Export Plug-In . SVG Version: 2.1.1 Build 1)  -->
  <defs>
    <style>
      .st0, .st1 {
        fill: #fff;
      }

      .st1 {
        font-family: Arial-BoldMT, Arial;
        font-size: 36px;
        font-weight: 700;
        isolation: isolate;
        letter-spacing: .03em;
      }
    </style>
  </defs>
  <path class="st0" d="M26.39,50.91c-1.81.02-3.61-.03-5.41-.17-2.26-.17-4.51-.44-6.74-.88-.63-.13-1.22-.38-1.83-.56-.34-.1-.7-.19-1.04-.3-.19-.06-.38-.14-.56-.24-.5-.27-.78-.69-.78-1.27s.23-1.03.73-1.33c.36-.21.74-.33,1.14-.42.51-.14,1.02-.3,1.52-.48.61-.23,1.27-.24,1.9-.37.12-.03.25-.05.37-.09.75-.24,1.1-.78,1.07-1.67,0-.2-.02-.4-.05-.6-.13-.84-.53-1.22-1.36-1.29-.86-.07-1.73-.12-2.6-.22-1.3-.16-2.59-.38-3.88-.65-1.13-.23-2.27-.46-3.39-.76-1.67-.45-2.86-1.49-3.59-3.09-.87-1.9-1.46-3.89-1.73-5.97-.22-1.69-.22-3.41-.02-5.1.12-1.09.33-2.15.86-3.11,1.11-2.02,2.82-3.09,5.08-3.14,1.39-.03,2.48.67,3.32,1.78.71.93,1.12,2.02,1.44,3.14.32,1.13.48,2.29.65,3.46.14.99.24,1.99.57,2.94.44,1.25,1.25,2.09,2.55,2.37.29.06.28.07.21-.21-.62-2.36-1.29-4.71-1.87-7.08-.4-1.6-.77-3.21-.96-4.85-.12-1.01-.23-2.01-.34-3.02-.1-.94-.29-1.88-.43-2.81-.55-3.56.22-6.8,2.36-9.68,1.66-2.24,3.81-3.82,6.43-4.71C21.24.12,22.52,0,23.81,0c2.13-.01,4.17.4,6.06,1.43,2.3,1.24,3.93,3.12,5.05,5.49.78,1.64,1.22,3.37,1.46,5.17.37,2.76.5,5.53.54,8.31.02,1.17.03,2.34.03,3.51,0,.16.02.21.19.16,1.22-.39,2.35-.93,3.27-1.85,1.04-1.03,1.6-2.31,1.85-3.74.26-1.51.47-3.04.91-4.51.28-.92.61-1.8,1.2-2.57.82-1.06,1.91-1.61,3.2-1.76.93-.11,1.83,0,2.69.42.64.31,1.17.78,1.62,1.32.8.95,1.27,2.08,1.56,3.28.42,1.77.53,3.57.43,5.39-.08,1.65-.34,3.27-.85,4.84-.38,1.15-.88,2.22-1.72,3.12-1.03,1.11-2.33,1.74-3.76,2.11-1.02.26-2.06.39-3.1.54-2.11.31-4.23.4-6.35.46-.2,0-.4.04-.6.09-.62.17-.93.6-1.02,1.23-.08.52-.08,1.05-.1,1.58-.11,2.02-.23,4.05-.42,6.07-.09.99-.19,1.99-.29,2.98-.02.21,0,.42.03.64.08.48.36.8.8.97.42.17.87.22,1.31.3,1.36.26,2.67.7,3.96,1.2.16.06.31.15.45.25.68.48.72,1.44.08,1.98-.27.22-.58.36-.9.49-1.62.67-3.32,1.13-5.05,1.39-1,.14-2,.25-3.01.33-1.4.11-2.8.2-4.2.25-.92.03-1.83.07-2.76.06h0s0,.01,0,.01Z"/>
  <text class="st1" transform="translate(62.95 37.97)"><tspan x="0" y="0">cakto</tspan></text>
</svg>